<svg width="115" height="58" viewBox="0 0 115 58" fill="none" xmlns="http://www.w3.org/2000/svg">
<rect x="40.0741" width="34.9259" height="58" rx="6" fill="#EA7676"/>
<rect x="34" y="10" width="12.9074" height="8" rx="2" fill="white"/>
<path d="M35.0607 32.0607C35.6464 31.4749 35.6464 30.5251 35.0607 29.9393L25.5147 20.3934C24.9289 19.8076 23.9792 19.8076 23.3934 20.3934C22.8076 20.9792 22.8076 21.9289 23.3934 22.5147L31.8787 31L23.3934 39.4853C22.8076 40.0711 22.8076 41.0208 23.3934 41.6066C23.9792 42.1924 24.9289 42.1924 25.5147 41.6066L35.0607 32.0607ZM0 32.5H34V29.5H0V32.5Z" fill="black"/>
<path d="M79.9393 32.0607C79.3536 31.4749 79.3536 30.5251 79.9393 29.9393L89.4853 20.3934C90.0711 19.8076 91.0208 19.8076 91.6066 20.3934C92.1924 20.9792 92.1924 21.9289 91.6066 22.5147L83.1213 31L91.6066 39.4853C92.1924 40.0711 92.1924 41.0208 91.6066 41.6066C91.0208 42.1924 90.0711 42.1924 89.4853 41.6066L79.9393 32.0607ZM115 32.5H81V29.5H115V32.5Z" fill="black"/>
</svg>
