<svg width="145" height="100" viewBox="0 0 145 100" fill="none" xmlns="http://www.w3.org/2000/svg">
<path d="M24.6097 70.55C26.443 70.55 28.0513 70.9083 29.4347 71.625C30.8347 72.3417 31.9097 73.3667 32.6597 74.7C33.4263 76.0167 33.8097 77.55 33.8097 79.3C33.8097 81.05 33.4263 82.5833 32.6597 83.9C31.9097 85.2 30.8347 86.2083 29.4347 86.925C28.0513 87.6417 26.443 88 24.6097 88H18.5097V70.55H24.6097ZM24.4847 85.025C26.318 85.025 27.7347 84.525 28.7347 83.525C29.7347 82.525 30.2347 81.1167 30.2347 79.3C30.2347 77.4833 29.7347 76.0667 28.7347 75.05C27.7347 74.0167 26.318 73.5 24.4847 73.5H22.0097V85.025H24.4847ZM34.2796 81.025C34.2796 79.625 34.5546 78.3833 35.1046 77.3C35.6713 76.2167 36.4296 75.3833 37.3796 74.8C38.3463 74.2167 39.4213 73.925 40.6046 73.925C41.6379 73.925 42.5379 74.1333 43.3046 74.55C44.0879 74.9667 44.7129 75.4917 45.1796 76.125V74.15H48.7046V88H45.1796V85.975C44.7296 86.625 44.1046 87.1667 43.3046 87.6C42.5213 88.0167 41.6129 88.225 40.5796 88.225C39.4129 88.225 38.3463 87.925 37.3796 87.325C36.4296 86.725 35.6713 85.8833 35.1046 84.8C34.5546 83.7 34.2796 82.4417 34.2796 81.025ZM45.1796 81.075C45.1796 80.225 45.0129 79.5 44.6796 78.9C44.3463 78.2833 43.8963 77.8167 43.3296 77.5C42.7629 77.1667 42.1546 77 41.5046 77C40.8546 77 40.2546 77.1583 39.7046 77.475C39.1546 77.7917 38.7046 78.2583 38.3546 78.875C38.0213 79.475 37.8546 80.1917 37.8546 81.025C37.8546 81.8583 38.0213 82.5917 38.3546 83.225C38.7046 83.8417 39.1546 84.3167 39.7046 84.65C40.2713 84.9833 40.8713 85.15 41.5046 85.15C42.1546 85.15 42.7629 84.9917 43.3296 84.675C43.8963 84.3417 44.3463 83.875 44.6796 83.275C45.0129 82.6583 45.1796 81.925 45.1796 81.075ZM56.1729 88.225C55.0396 88.225 54.0229 88.025 53.1229 87.625C52.2229 87.2083 51.5063 86.65 50.9729 85.95C50.4563 85.25 50.1729 84.475 50.1229 83.625H53.6479C53.7146 84.1583 53.9729 84.6 54.4229 84.95C54.8896 85.3 55.4646 85.475 56.1479 85.475C56.8146 85.475 57.3313 85.3417 57.6979 85.075C58.0813 84.8083 58.2729 84.4667 58.2729 84.05C58.2729 83.6 58.0396 83.2667 57.5729 83.05C57.1229 82.8167 56.3979 82.5667 55.3979 82.3C54.3646 82.05 53.5146 81.7917 52.8479 81.525C52.1979 81.2583 51.6313 80.85 51.1479 80.3C50.6813 79.75 50.4479 79.0083 50.4479 78.075C50.4479 77.3083 50.6646 76.6083 51.0979 75.975C51.5479 75.3417 52.1813 74.8417 52.9979 74.475C53.8313 74.1083 54.8063 73.925 55.9229 73.925C57.5729 73.925 58.8896 74.3417 59.8729 75.175C60.8563 75.9917 61.3979 77.1 61.4979 78.5H58.1479C58.0979 77.95 57.8646 77.5167 57.4479 77.2C57.0479 76.8667 56.5063 76.7 55.8229 76.7C55.1896 76.7 54.6979 76.8167 54.3479 77.05C54.0146 77.2833 53.8479 77.6083 53.8479 78.025C53.8479 78.4917 54.0813 78.85 54.5479 79.1C55.0146 79.3333 55.7396 79.575 56.7229 79.825C57.7229 80.075 58.5479 80.3333 59.1979 80.6C59.8479 80.8667 60.4063 81.2833 60.8729 81.85C61.3563 82.4 61.6063 83.1333 61.6229 84.05C61.6229 84.85 61.3979 85.5667 60.948 86.2C60.5146 86.8333 59.8813 87.3333 59.0479 87.7C58.2313 88.05 57.2729 88.225 56.1729 88.225ZM71.046 73.95C72.096 73.95 73.0293 74.1833 73.846 74.65C74.6627 75.1 75.296 75.775 75.746 76.675C76.2127 77.5583 76.446 78.625 76.446 79.875V88H72.946V80.35C72.946 79.25 72.671 78.4083 72.121 77.825C71.571 77.225 70.821 76.925 69.871 76.925C68.9043 76.925 68.1377 77.225 67.571 77.825C67.021 78.4083 66.746 79.25 66.746 80.35V88H63.246V69.5H66.746V75.875C67.196 75.275 67.796 74.8083 68.546 74.475C69.296 74.125 70.1293 73.95 71.046 73.95ZM96.7813 75.8C96.7813 76.6833 96.573 77.5167 96.1563 78.3C95.7397 79.0833 95.073 79.725 94.1563 80.225C93.2397 80.7083 92.0647 80.95 90.6313 80.95H87.4813V88H84.6313V70.625H90.6313C91.9647 70.625 93.0897 70.8583 94.0063 71.325C94.9397 71.775 95.6313 72.3917 96.0813 73.175C96.548 73.9583 96.7813 74.8333 96.7813 75.8ZM90.6313 78.625C91.7147 78.625 92.523 78.3833 93.0563 77.9C93.5897 77.4 93.8563 76.7 93.8563 75.8C93.8563 73.9 92.7813 72.95 90.6313 72.95H87.4813V78.625H90.6313ZM105.175 70.625C107.025 70.625 108.641 70.9833 110.025 71.7C111.425 72.4 112.5 73.4167 113.25 74.75C114.016 76.0667 114.4 77.6083 114.4 79.375C114.4 81.1417 114.016 82.675 113.25 83.975C112.5 85.275 111.425 86.275 110.025 86.975C108.641 87.6583 107.025 88 105.175 88H99.4995V70.625H105.175ZM105.175 85.675C107.208 85.675 108.766 85.125 109.85 84.025C110.933 82.925 111.475 81.375 111.475 79.375C111.475 77.3583 110.933 75.7833 109.85 74.65C108.766 73.5167 107.208 72.95 105.175 72.95H102.35V85.675H105.175ZM127.449 70.625V72.95H120.074V78.075H125.824V80.4H120.074V88H117.224V70.625H127.449Z" fill="white"/>
<rect x="53" width="46" height="58" rx="6" fill="#EA7676"/>
<rect x="45" y="10" width="17" height="8" rx="2" fill="#FFDADA"/>
<rect x="49" y="40" width="17" height="8" rx="2" fill="#FFDADA"/>
</svg>
